<svg xmlns="http://www.w3.org/2000/svg">
  <symbol id="icon-plus" viewBox="0 0 24 24">
    <path d="M12 5v14M5 12h14" fill="none" stroke="currentColor" stroke-width="1.8" stroke-linecap="square" stroke-linejoin="miter"/>
  </symbol>
  <symbol id="icon-filter" viewBox="0 0 24 24">
    <path d="M4 6h16M7 12h10M10 18h4" fill="none" stroke="currentColor" stroke-width="1.8" stroke-linecap="square" stroke-linejoin="miter"/>
  </symbol>
  <symbol id="icon-download" viewBox="0 0 24 24">
    <path d="M12 4v10M8 10l4 4 4-4M5 20h14" fill="none" stroke="currentColor" stroke-width="1.8" stroke-linecap="square" stroke-linejoin="miter"/>
  </symbol>
  <symbol id="icon-check" viewBox="0 0 24 24">
    <path d="M5 13l4 4L19 7" fill="none" stroke="currentColor" stroke-width="1.8" stroke-linecap="square" stroke-linejoin="miter"/>
  </symbol>
  <symbol id="icon-x" viewBox="0 0 24 24">
    <path d="M6 6l12 12M18 6L6 18" fill="none" stroke="currentColor" stroke-width="1.8" stroke-linecap="square" stroke-linejoin="miter"/>
  </symbol>
  <symbol id="icon-refresh" viewBox="0 0 24 24">
    <path d="M20 7v5h-5M4 17v-5h5M18 12a6 6 0 0 0-10-4M6 12a6 6 0 0 0 10 4" fill="none" stroke="currentColor" stroke-width="1.8" stroke-linecap="square" stroke-linejoin="miter"/>
  </symbol>
  <symbol id="icon-more" viewBox="0 0 24 24">
    <path d="M5 12h.01M12 12h.01M19 12h.01" fill="none" stroke="currentColor" stroke-width="1.8" stroke-linecap="square" stroke-linejoin="miter"/>
  </symbol>
  <symbol id="icon-search" viewBox="0 0 24 24">
    <path d="M10.5 18a7.5 7.5 0 1 1 5.3-12.8 7.5 7.5 0 0 1-5.3 12.8ZM16 16l4 4" fill="none" stroke="currentColor" stroke-width="1.8" stroke-linecap="square" stroke-linejoin="miter"/>
  </symbol>
  <symbol id="icon-calendar" viewBox="0 0 24 24">
    <path d="M7 4v4M17 4v4M5 8h14M6 6h12v14H6z" fill="none" stroke="currentColor" stroke-width="1.8" stroke-linecap="square" stroke-linejoin="miter"/>
  </symbol>
  <symbol id="icon-user" viewBox="0 0 24 24">
    <path d="M12 13a4 4 0 1 0 0-8 4 4 0 0 0 0 8ZM4 21a8 8 0 0 1 16 0" fill="none" stroke="currentColor" stroke-width="1.8" stroke-linecap="square" stroke-linejoin="miter"/>
  </symbol>
  <symbol id="icon-file" viewBox="0 0 24 24">
    <path d="M6 3h8l4 4v14H6zM14 3v5h4M9 13h6M9 17h6" fill="none" stroke="currentColor" stroke-width="1.8" stroke-linecap="square" stroke-linejoin="miter"/>
  </symbol>
  <symbol id="icon-table" viewBox="0 0 24 24">
    <path d="M4 5h16v14H4zM4 10h16M4 15h16M10 5v14M16 5v14" fill="none" stroke="currentColor" stroke-width="1.8" stroke-linecap="square" stroke-linejoin="miter"/>
  </symbol>
  <symbol id="icon-alert" viewBox="0 0 24 24">
    <path d="M12 4l9 16H3zM12 9v5M12 17h.01" fill="none" stroke="currentColor" stroke-width="1.8" stroke-linecap="square" stroke-linejoin="miter"/>
  </symbol>
  <symbol id="icon-settings" viewBox="0 0 24 24">
    <path d="M12 15a3 3 0 1 0 0-6 3 3 0 0 0 0 6ZM19 12h2M3 12h2M12 3v2M12 19v2M17 5l-1.4 1.4M8.4 17.6 7 19M7 5l1.4 1.4M15.6 17.6 17 19" fill="none" stroke="currentColor" stroke-width="1.8" stroke-linecap="square" stroke-linejoin="miter"/>
  </symbol>
  <symbol id="icon-lock" viewBox="0 0 24 24">
    <path d="M7 11V8a5 5 0 0 1 10 0v3M6 11h12v10H6zM12 15v3" fill="none" stroke="currentColor" stroke-width="1.8" stroke-linecap="square" stroke-linejoin="miter"/>
  </symbol>
  <symbol id="icon-sun" viewBox="0 0 24 24">
    <path d="M12 16a4 4 0 1 0 0-8 4 4 0 0 0 0 8ZM12 3v2M12 19v2M3 12h2M19 12h2M5.6 5.6l1.4 1.4M17 17l1.4 1.4M18.4 5.6 17 7M7 17l-1.4 1.4" fill="none" stroke="currentColor" stroke-width="1.8" stroke-linecap="square" stroke-linejoin="miter"/>
  </symbol>
  <symbol id="icon-moon" viewBox="0 0 24 24">
    <path d="M20 14a8 8 0 0 1-10-10 8 8 0 1 0 10 10Z" fill="none" stroke="currentColor" stroke-width="1.8" stroke-linecap="square" stroke-linejoin="miter"/>
  </symbol>
  <symbol id="icon-chevron-down" viewBox="0 0 24 24">
    <path d="M6 9l6 6 6-6" fill="none" stroke="currentColor" stroke-width="1.8" stroke-linecap="square" stroke-linejoin="miter"/>
  </symbol>
  <symbol id="icon-chevron-up" viewBox="0 0 24 24">
    <path d="M18 15l-6-6-6 6" fill="none" stroke="currentColor" stroke-width="1.8" stroke-linecap="square" stroke-linejoin="miter"/>
  </symbol>
  <symbol id="icon-chevron-left" viewBox="0 0 24 24">
    <path d="M15 6l-6 6 6 6" fill="none" stroke="currentColor" stroke-width="1.8" stroke-linecap="square" stroke-linejoin="miter"/>
  </symbol>
  <symbol id="icon-chevron-right" viewBox="0 0 24 24">
    <path d="M9 6l6 6-6 6" fill="none" stroke="currentColor" stroke-width="1.8" stroke-linecap="square" stroke-linejoin="miter"/>
  </symbol>
  <symbol id="icon-arrow-up" viewBox="0 0 24 24">
    <path d="M12 20V4M6 10l6-6 6 6" fill="none" stroke="currentColor" stroke-width="1.8" stroke-linecap="square" stroke-linejoin="miter"/>
  </symbol>
  <symbol id="icon-arrow-down" viewBox="0 0 24 24">
    <path d="M12 4v16M6 14l6 6 6-6" fill="none" stroke="currentColor" stroke-width="1.8" stroke-linecap="square" stroke-linejoin="miter"/>
  </symbol>
  <symbol id="icon-info" viewBox="0 0 24 24">
    <path d="M12 21a9 9 0 1 0 0-18 9 9 0 0 0 0 18ZM12 11v5M12 7.5h.01" fill="none" stroke="currentColor" stroke-width="1.8" stroke-linecap="square" stroke-linejoin="miter"/>
  </symbol>
  <symbol id="icon-check-circle" viewBox="0 0 24 24">
    <path d="M12 21a9 9 0 1 0 0-18 9 9 0 0 0 0 18ZM8.5 12l2.5 2.5 4.5-5" fill="none" stroke="currentColor" stroke-width="1.8" stroke-linecap="square" stroke-linejoin="miter"/>
  </symbol>
  <symbol id="icon-edit" viewBox="0 0 24 24">
    <path d="M4 17v3h3L18 9l-3-3L4 17ZM13.5 7.5l3 3" fill="none" stroke="currentColor" stroke-width="1.8" stroke-linecap="square" stroke-linejoin="miter"/>
  </symbol>
  <symbol id="icon-trash" viewBox="0 0 24 24">
    <path d="M4 7h16M9 7V4h6v3M6 7l1 13h10l1-13M10 11v6M14 11v6" fill="none" stroke="currentColor" stroke-width="1.8" stroke-linecap="square" stroke-linejoin="miter"/>
  </symbol>
  <symbol id="icon-paperclip" viewBox="0 0 24 24">
    <path d="M16 8v8a4 4 0 0 1-8 0V7a2.5 2.5 0 0 1 5 0v8.5a1 1 0 0 1-2 0V9" fill="none" stroke="currentColor" stroke-width="1.8" stroke-linecap="square" stroke-linejoin="miter"/>
  </symbol>
  <symbol id="icon-bell" viewBox="0 0 24 24">
    <path d="M5 18h14l-2-2v-5a5 5 0 0 0-10 0v5l-2 2M9.5 21h5" fill="none" stroke="currentColor" stroke-width="1.8" stroke-linecap="square" stroke-linejoin="miter"/>
  </symbol>
  <symbol id="icon-upload" viewBox="0 0 24 24">
    <path d="M12 16V4M8 8l4-4 4 4M5 20h14" fill="none" stroke="currentColor" stroke-width="1.8" stroke-linecap="square" stroke-linejoin="miter"/>
  </symbol>
  <symbol id="icon-link" viewBox="0 0 24 24">
    <path d="M10 14a4 4 0 0 0 6 0l2-2a4 4 0 0 0-6-6l-1 1M14 10a4 4 0 0 0-6 0l-2 2a4 4 0 0 0 6 6l1-1" fill="none" stroke="currentColor" stroke-width="1.8" stroke-linecap="square" stroke-linejoin="miter"/>
  </symbol>
  <symbol id="icon-external-link" viewBox="0 0 24 24">
    <path d="M14 5h5v5M19 5l-9 9M19 14v5H5V5h5" fill="none" stroke="currentColor" stroke-width="1.8" stroke-linecap="square" stroke-linejoin="miter"/>
  </symbol>
  <symbol id="icon-eye" viewBox="0 0 24 24">
    <path d="M2 12s3.5-7 10-7 10 7 10 7-3.5 7-10 7-10-7-10-7ZM12 15a3 3 0 1 0 0-6 3 3 0 0 0 0 6Z" fill="none" stroke="currentColor" stroke-width="1.8" stroke-linecap="square" stroke-linejoin="miter"/>
  </symbol>
  <symbol id="icon-eye-off" viewBox="0 0 24 24">
    <path d="M4 4l16 16M9.5 9.5a3 3 0 0 0 4 4M8 5.5A10 10 0 0 1 12 5c6.5 0 10 7 10 7a18 18 0 0 1-2.5 3.2M5.5 7.5A18 18 0 0 0 2 12s3.5 7 10 7a10 10 0 0 0 2.5-.3" fill="none" stroke="currentColor" stroke-width="1.8" stroke-linecap="square" stroke-linejoin="miter"/>
  </symbol>
  <symbol id="icon-clock" viewBox="0 0 24 24">
    <path d="M12 21a9 9 0 1 0 0-18 9 9 0 0 0 0 18ZM12 7.5V12l3 2" fill="none" stroke="currentColor" stroke-width="1.8" stroke-linecap="square" stroke-linejoin="miter"/>
  </symbol>
  <symbol id="icon-help" viewBox="0 0 24 24">
    <path d="M12 21a9 9 0 1 0 0-18 9 9 0 0 0 0 18ZM9.5 9.5a2.5 2.5 0 1 1 3.3 2.4c-.9.4-1.3 1-1.3 1.9M12 17h.01" fill="none" stroke="currentColor" stroke-width="1.8" stroke-linecap="square" stroke-linejoin="miter"/>
  </symbol>
  <symbol id="icon-menu" viewBox="0 0 24 24">
    <path d="M4 7h16M4 12h16M4 17h16" fill="none" stroke="currentColor" stroke-width="1.8" stroke-linecap="square" stroke-linejoin="miter"/>
  </symbol>
  <symbol id="icon-mail" viewBox="0 0 24 24">
    <path d="M3 6h18v12H3zM3.5 7l8.5 6 8.5-6" fill="none" stroke="currentColor" stroke-width="1.8" stroke-linecap="square" stroke-linejoin="miter"/>
  </symbol>
  <symbol id="icon-image" viewBox="0 0 24 24">
    <path d="M4 5h16v14H4zM9 10a1.5 1.5 0 1 0 0-3 1.5 1.5 0 0 0 0 3ZM4 16l5-4 4 3 3-2 4 3" fill="none" stroke="currentColor" stroke-width="1.8" stroke-linecap="square" stroke-linejoin="miter"/>
  </symbol>
  <symbol id="icon-folder" viewBox="0 0 24 24">
    <path d="M3 6h5l2 2h11v11H3z" fill="none" stroke="currentColor" stroke-width="1.8" stroke-linecap="square" stroke-linejoin="miter"/>
  </symbol>
  <symbol id="icon-tag" viewBox="0 0 24 24">
    <path d="M4 4h7l9 9-7 7-9-9V4ZM7.5 7.5h.01" fill="none" stroke="currentColor" stroke-width="1.8" stroke-linecap="square" stroke-linejoin="miter"/>
  </symbol>
  <symbol id="icon-star" viewBox="0 0 24 24">
    <path d="M12 3l2.7 5.5 6 .9-4.3 4.2 1 6L12 17l-5.4 2.6 1-6L3.3 9.4l6-.9L12 3Z" fill="none" stroke="currentColor" stroke-width="1.8" stroke-linecap="square" stroke-linejoin="miter"/>
  </symbol>
  <symbol id="icon-grid" viewBox="0 0 24 24">
    <path d="M4 4h7v7H4zM13 4h7v7h-7zM4 13h7v7H4zM13 13h7v7h-7z" fill="none" stroke="currentColor" stroke-width="1.8" stroke-linecap="square" stroke-linejoin="miter"/>
  </symbol>
  <symbol id="icon-list" viewBox="0 0 24 24">
    <path d="M8 6h12M8 12h12M8 18h12M4 6h.01M4 12h.01M4 18h.01" fill="none" stroke="currentColor" stroke-width="1.8" stroke-linecap="square" stroke-linejoin="miter"/>
  </symbol>
  <symbol id="icon-warning" viewBox="0 0 24 24">
    <path d="M12 3l9 9-9 9-9-9 9-9ZM12 8v4.5M12 16h.01" fill="none" stroke="currentColor" stroke-width="1.8" stroke-linecap="square" stroke-linejoin="miter"/>
  </symbol>
</svg>
