<svg xmlns="http://www.w3.org/2000/svg">
  <symbol id="icon-plus" viewBox="0 0 24 24">
    <path d="M12 5v14M5 12h14" fill="none" stroke="currentColor" stroke-width="1.8" stroke-linecap="square" stroke-linejoin="miter"/>
  </symbol>
  <symbol id="icon-filter" viewBox="0 0 24 24">
    <path d="M4 6h16M7 12h10M10 18h4" fill="none" stroke="currentColor" stroke-width="1.8" stroke-linecap="square" stroke-linejoin="miter"/>
  </symbol>
  <symbol id="icon-download" viewBox="0 0 24 24">
    <path d="M12 4v10M8 10l4 4 4-4M5 20h14" fill="none" stroke="currentColor" stroke-width="1.8" stroke-linecap="square" stroke-linejoin="miter"/>
  </symbol>
  <symbol id="icon-check" viewBox="0 0 24 24">
    <path d="M5 13l4 4L19 7" fill="none" stroke="currentColor" stroke-width="1.8" stroke-linecap="square" stroke-linejoin="miter"/>
  </symbol>
  <symbol id="icon-x" viewBox="0 0 24 24">
    <path d="M6 6l12 12M18 6L6 18" fill="none" stroke="currentColor" stroke-width="1.8" stroke-linecap="square" stroke-linejoin="miter"/>
  </symbol>
  <symbol id="icon-refresh" viewBox="0 0 24 24">
    <path d="M20 7v5h-5M4 17v-5h5M18 12a6 6 0 0 0-10-4M6 12a6 6 0 0 0 10 4" fill="none" stroke="currentColor" stroke-width="1.8" stroke-linecap="square" stroke-linejoin="miter"/>
  </symbol>
  <symbol id="icon-more" viewBox="0 0 24 24">
    <path d="M5 12h.01M12 12h.01M19 12h.01" fill="none" stroke="currentColor" stroke-width="1.8" stroke-linecap="square" stroke-linejoin="miter"/>
  </symbol>
  <symbol id="icon-search" viewBox="0 0 24 24">
    <path d="M10.5 18a7.5 7.5 0 1 1 5.3-12.8 7.5 7.5 0 0 1-5.3 12.8ZM16 16l4 4" fill="none" stroke="currentColor" stroke-width="1.8" stroke-linecap="square" stroke-linejoin="miter"/>
  </symbol>
  <symbol id="icon-calendar" viewBox="0 0 24 24">
    <path d="M7 4v4M17 4v4M5 8h14M6 6h12v14H6z" fill="none" stroke="currentColor" stroke-width="1.8" stroke-linecap="square" stroke-linejoin="miter"/>
  </symbol>
  <symbol id="icon-user" viewBox="0 0 24 24">
    <path d="M12 13a4 4 0 1 0 0-8 4 4 0 0 0 0 8ZM4 21a8 8 0 0 1 16 0" fill="none" stroke="currentColor" stroke-width="1.8" stroke-linecap="square" stroke-linejoin="miter"/>
  </symbol>
  <symbol id="icon-file" viewBox="0 0 24 24">
    <path d="M6 3h8l4 4v14H6zM14 3v5h4M9 13h6M9 17h6" fill="none" stroke="currentColor" stroke-width="1.8" stroke-linecap="square" stroke-linejoin="miter"/>
  </symbol>
  <symbol id="icon-table" viewBox="0 0 24 24">
    <path d="M4 5h16v14H4zM4 10h16M4 15h16M10 5v14M16 5v14" fill="none" stroke="currentColor" stroke-width="1.8" stroke-linecap="square" stroke-linejoin="miter"/>
  </symbol>
  <symbol id="icon-alert" viewBox="0 0 24 24">
    <path d="M12 4l9 16H3zM12 9v5M12 17h.01" fill="none" stroke="currentColor" stroke-width="1.8" stroke-linecap="square" stroke-linejoin="miter"/>
  </symbol>
  <symbol id="icon-settings" viewBox="0 0 24 24">
    <path d="M12 15a3 3 0 1 0 0-6 3 3 0 0 0 0 6ZM19 12h2M3 12h2M12 3v2M12 19v2M17 5l-1.4 1.4M8.4 17.6 7 19M7 5l1.4 1.4M15.6 17.6 17 19" fill="none" stroke="currentColor" stroke-width="1.8" stroke-linecap="square" stroke-linejoin="miter"/>
  </symbol>
  <symbol id="icon-lock" viewBox="0 0 24 24">
    <path d="M7 11V8a5 5 0 0 1 10 0v3M6 11h12v10H6zM12 15v3" fill="none" stroke="currentColor" stroke-width="1.8" stroke-linecap="square" stroke-linejoin="miter"/>
  </symbol>
  <symbol id="icon-sun" viewBox="0 0 24 24">
    <path d="M12 16a4 4 0 1 0 0-8 4 4 0 0 0 0 8ZM12 3v2M12 19v2M3 12h2M19 12h2M5.6 5.6l1.4 1.4M17 17l1.4 1.4M18.4 5.6 17 7M7 17l-1.4 1.4" fill="none" stroke="currentColor" stroke-width="1.8" stroke-linecap="square" stroke-linejoin="miter"/>
  </symbol>
  <symbol id="icon-moon" viewBox="0 0 24 24">
    <path d="M20 14a8 8 0 0 1-10-10 8 8 0 1 0 10 10Z" fill="none" stroke="currentColor" stroke-width="1.8" stroke-linecap="square" stroke-linejoin="miter"/>
  </symbol>
</svg>
