<svg xmlns="http://www.w3.org/2000/svg">
  <symbol id="add" viewBox="0 0 24 24">
    <path fill="#262626" d="M11 13H5v-2h6V5h2v6h6v2h-6v6h-2v-6z" />
  </symbol>
  <symbol id="arrow-down" viewBox="0 0 24 24">
    <path d="M12 18l-6-6 1.4-1.4 3.6 3.6V5h2v9.2l3.6-3.6L18 12l-6 6z" />
  </symbol>
  <symbol id="attach" viewBox="0 0 24 24">
    <path
      d="M18 15.75c0 1.733-.608 3.208-1.825 4.425C14.958 21.392 13.483 22 11.75 22c-1.733 0-3.208-.608-4.425-1.825C6.108 18.958 5.5 17.483 5.5 15.75V6.5c0-1.25.438-2.312 1.313-3.187S8.751 2.001 10 2c1.25 0 2.312.437 3.188 1.313.876.876 1.313 1.938 1.312 3.187v8.75c0 .767-.267 1.417-.8 1.95-.533.533-1.183.8-1.95.8a2.654 2.654 0 0 1-1.95-.8 2.653 2.653 0 0 1-.8-1.95V6h2v9.25a.73.73 0 0 0 .75.75.737.737 0 0 0 .538-.213.717.717 0 0 0 .212-.537V6.5c-.017-.7-.262-1.292-.737-1.775C11.288 4.242 10.701 4 10 4c-.7 0-1.292.242-1.775.725C7.742 5.208 7.501 5.8 7.5 6.5v9.25c-.017 1.183.392 2.188 1.225 3.013.833.825 1.842 1.238 3.025 1.237 1.167 0 2.158-.412 2.975-1.237.817-.825 1.242-1.829 1.275-3.013V6h2v9.75z"
    />
  </symbol>
  <symbol id="arrow-right" viewBox="0 0 24 24">
    <path
      fill="#262626"
      d="M14 18l-1.4-1.45L16.15 13H4v-2h12.15L12.6 7.45 14 6l6 6-6 6z"
    />
  </symbol>
  <symbol id="arrow-up" viewBox="0 0 24 24">
    <path d="M11 18V8.8l-3.6 3.6L6 11l6-6 6 6-1.4 1.4L13 8.8V18h-2z" />
  </symbol>
  <symbol id="arrow-left" viewBox="0 0 24 24">
    <path d="M10 18l-6-6 6-6 1.4 1.45L7.85 11H20v2H7.85l3.55 3.55L10 18z" />
  </symbol>
  <symbol id="calendar" viewBox="0 0 24 24">
    <path
      d="M5 22c-.55 0-1.02-.196-1.412-.587A1.93 1.93 0 0 1 3 20V6c0-.55.196-1.02.588-1.412A1.93 1.93 0 0 1 5 4h1V2h2v2h8V2h2v2h1c.55 0 1.021.196 1.413.588.392.392.588.863.587 1.412v14a1.93 1.93 0 0 1-.587 1.413A1.92 1.92 0 0 1 19 22H5zm0-2h14V10H5v10zM5 8h14V6H5v2z"
    />
  </symbol>
  <symbol id="check-circle" viewBox="0 0 24 24">
    <path
      d="M10.6 16.6l7.05-7.05-1.4-1.4-5.65 5.65-2.85-2.85-1.4 1.4 4.25 4.25zM12 22a9.733 9.733 0 0 1-3.9-.788 10.114 10.114 0 0 1-3.175-2.137c-.9-.9-1.612-1.958-2.137-3.175A9.76 9.76 0 0 1 2 12c0-1.383.262-2.683.788-3.9a10.121 10.121 0 0 1 2.137-3.175A10.07 10.07 0 0 1 8.1 2.788 9.742 9.742 0 0 1 12 2c1.382 0 2.682.263 3.9.788a10.084 10.084 0 0 1 3.175 2.137c.899.9 1.611 1.958 2.138 3.175A9.679 9.679 0 0 1 22 12a9.806 9.806 0 0 1-.788 3.9 10.032 10.032 0 0 1-2.137 3.175 10.16 10.16 0 0 1-3.175 2.138A9.689 9.689 0 0 1 12 22zm0-2c2.233 0 4.125-.775 5.675-2.325C19.225 16.125 20 14.233 20 12c0-2.233-.775-4.125-2.325-5.675C16.125 4.775 14.233 4 12 4c-2.233 0-4.125.775-5.675 2.325C4.775 7.875 4 9.767 4 12c0 2.233.775 4.125 2.325 5.675C7.875 19.225 9.767 20 12 20z"
    />
  </symbol>
  <symbol id="crop" viewBox="0 0 24 24">
    <path
      fill="#262626"
      d="M5 21c-.55 0-1.02-.196-1.412-.587A1.93 1.93 0 0 1 3 19v-4h2v4h4v2H5zm10 0v-2h4v-4h2v4a1.93 1.93 0 0 1-.587 1.413A1.92 1.92 0 0 1 19 21h-4zM3 9V5c0-.55.196-1.02.588-1.412A1.93 1.93 0 0 1 5 3h4v2H5v4H3zm16 0V5h-4V3h4c.55 0 1.021.196 1.413.588.392.392.588.863.587 1.412v4h-2z"
    />
  </symbol>
  <symbol id="check" viewBox="0 0 24 24">
    <path d="M10 16.4l-4-4L7.4 11l2.6 2.6L16.6 7 18 8.4l-8 8z" />
  </symbol>
  <symbol id="close" viewBox="0 0 24 24">
    <path
      d="M6.4 19L5 17.6l5.6-5.6L5 6.4 6.4 5l5.6 5.6L17.6 5 19 6.4 13.4 12l5.6 5.6-1.4 1.4-5.6-5.6L6.4 19z"
    />
  </symbol>
  <symbol id="download" viewBox="0 0 24 24">
    <path
      fill="#262626"
      d="M12 16l-5-5 1.4-1.45 2.6 2.6V4h2v8.15l2.6-2.6L17 11l-5 5zm-8 4v-5h2v3h12v-3h2v5H4z"
    />
  </symbol>
  <symbol id="edit" viewBox="0 0 24 24">
    <path
      fill="#262626"
      d="M5 21c-.55 0-1.02-.196-1.412-.587A1.93 1.93 0 0 1 3 19V5c0-.55.196-1.02.588-1.412A1.93 1.93 0 0 1 5 3h8.925l-2 2H5v14h14v-6.95l2-2V19a1.93 1.93 0 0 1-.587 1.413A1.92 1.92 0 0 1 19 21H5zm4-6v-4.25l9.175-9.175c.2-.2.425-.35.675-.45a1.978 1.978 0 0 1 2.175.45L22.425 3c.183.2.325.421.425.663.1.242.15.488.15.737 0 .25-.046.495-.137.738a1.839 1.839 0 0 1-.438.662L13.25 15H9zm2-2h1.4l5.8-5.8-.7-.7-.725-.7L11 11.575V13z"
    />
  </symbol>
  <symbol id="expand" viewBox="0 0 24 24">
    <path
      fill="#262626"
      d="M12 22l-6-6 1.425-1.425L12 19.15l4.575-4.575L18 16l-6 6zM7.45 9.4L6 8l6-6 6 6-1.45 1.4L12 4.85 7.45 9.4z"
    />
  </symbol>
  <symbol id="delete" viewBox="0 0 24 24">
    <path
      fill="#262626"
      d="M7 21c-.55 0-1.02-.196-1.412-.587A1.93 1.93 0 0 1 5 19V6H4V4h5V3h6v1h5v2h-1v13a1.93 1.93 0 0 1-.587 1.413A1.92 1.92 0 0 1 17 21H7zM17 6H7v13h10V6zM9 17h2V8H9v9zm4 0h2V8h-2v9z"
    />
  </symbol>
  <symbol id="file" viewBox="0 0 24 24">
    <path
      d="M7 22c-.55 0-1.02-.196-1.412-.587A1.93 1.93 0 0 1 5 20V4c0-.55.196-1.02.588-1.412A1.93 1.93 0 0 1 7 2h6.175a1.978 1.978 0 0 1 1.4.575l3.85 3.85a1.976 1.976 0 0 1 .575 1.4V20a1.93 1.93 0 0 1-.587 1.413A1.92 1.92 0 0 1 17 22H7zm4-18H7v16h10V10h-3a2.893 2.893 0 0 1-2.125-.875A2.893 2.893 0 0 1 11 7V4zm2 0v3c0 .283.096.521.288.713.192.192.43.288.712.287h3v-.175L13.175 4H13zm-3 15a.965.965 0 0 1-.712-.288A.972.972 0 0 1 9 18c0-.283.095-.52.288-.712A.97.97 0 0 1 10 17h2c.283 0 .521.096.713.288.192.192.288.43.287.712 0 .283-.097.52-.288.713A.957.957 0 0 1 12 19h-2zm0-4a.965.965 0 0 1-.712-.288A.972.972 0 0 1 9 14c0-.283.095-.52.288-.712A.97.97 0 0 1 10 13h4c.283 0 .521.096.713.288.192.192.288.43.287.712 0 .283-.097.52-.288.713A.957.957 0 0 1 14 15h-4z"
    />
  </symbol>
  <symbol id="folder" viewBox="0 0 24 24">
    <path
      fill="#262626"
      d="M4 20c-.55 0-1.02-.196-1.412-.587A1.93 1.93 0 0 1 2 18V6c0-.55.196-1.02.588-1.412A1.93 1.93 0 0 1 4 4h6l2 2h8c.55 0 1.021.196 1.413.588.392.392.588.863.587 1.412v10a1.93 1.93 0 0 1-.587 1.413A1.92 1.92 0 0 1 20 20H4zm0-2h16V8h-8.825l-2-2H4v12z"
    />
  </symbol>
  <symbol id="filter" viewBox="0 0 24 24">
    <path fill="#262626" d="M10 18v-2h4v2h-4zm-4-5v-2h12v2H6zM3 8V6h18v2H3z" />
  </symbol>
  <symbol id="dark-mode" viewBox="0 0 24 24">
    <path
      d="M12 21c-2.5 0-4.625-.875-6.375-2.625S3 14.5 3 12s.875-4.625 2.625-6.375S9.5 3 12 3a9.146 9.146 0 0 1 1.35.1 5.296 5.296 0 0 0-1.638 1.888A5.297 5.297 0 0 0 11.1 7.5c0 1.5.525 2.775 1.575 3.825C13.725 12.375 15 12.9 16.5 12.9a5.28 5.28 0 0 0 2.525-.613A5.33 5.33 0 0 0 20.9 10.65 8.509 8.509 0 0 1 21 12c0 2.5-.875 4.625-2.625 6.375S14.5 21 12 21zm0-2c1.467 0 2.783-.404 3.95-1.213a7.017 7.017 0 0 0 2.55-3.162c-.333.083-.667.15-1 .2-.333.05-.667.075-1 .075-2.05 0-3.796-.721-5.238-2.163C9.82 11.295 9.099 9.549 9.1 7.5c0-.333.025-.667.075-1 .05-.333.117-.667.2-1a7.016 7.016 0 0 0-3.163 2.55C5.403 9.217 4.999 10.533 5 12c0 1.933.683 3.583 2.05 4.95C8.417 18.317 10.067 19 12 19z"
    />
  </symbol>
  <symbol id="image" viewBox="0 0 24 24">
    <path
      d="M5 21c-.55 0-1.02-.196-1.412-.587A1.93 1.93 0 0 1 3 19V5c0-.55.196-1.02.588-1.412A1.93 1.93 0 0 1 5 3h14c.55 0 1.021.196 1.413.588.392.392.588.863.587 1.412v14a1.93 1.93 0 0 1-.587 1.413A1.92 1.92 0 0 1 19 21H5zm0-2h14V5H5v14zm1-2h12l-3.75-5-3 4L9 13l-3 4zm3.563-7.437A1.45 1.45 0 0 0 10 8.5c0-.417-.146-.77-.437-1.062A1.45 1.45 0 0 0 8.5 7a1.44 1.44 0 0 0-1.062.438c-.29.293-.437.647-.438 1.062-.001.415.145.77.438 1.063.293.293.647.439 1.062.437a1.471 1.471 0 0 0 1.063-.437z"
    />
  </symbol>
  <symbol id="grid" viewBox="0 0 24 24">
    <path
      d="M3 11V3h8v8H3zm0 10v-8h8v8H3zm10-10V3h8v8h-8zm0 10v-8h8v8h-8zM5 9h4V5H5v4zm10 0h4V5h-4v4zm0 10h4v-4h-4v4zM5 19h4v-4H5v4z"
    />
  </symbol>
  <symbol id="help" viewBox="0 0 24 24">
    <path
      d="M12.838 17.638a1.21 1.21 0 0 0 .362-.888c0-.35-.12-.646-.362-.888a1.202 1.202 0 0 0-.888-.362c-.35 0-.646.122-.887.363-.24.241-.362.537-.363.887-.001.35.12.646.363.888s.539.363.887.362c.348 0 .644-.122.888-.363M11.05 14.15h1.85c0-.55.063-.983.188-1.3.125-.317.48-.75 1.062-1.3a7.483 7.483 0 0 0 1.025-1.238c.25-.392.375-.863.375-1.412 0-.933-.342-1.65-1.025-2.15-.683-.5-1.492-.75-2.425-.75-.95 0-1.72.25-2.312.75a3.98 3.98 0 0 0-1.238 1.8l1.65.65c.083-.3.271-.625.563-.975.292-.35.738-.525 1.337-.525.533 0 .933.146 1.2.438.267.292.4.613.4.962 0 .333-.1.646-.3.938-.2.292-.45.563-.75.812-.733.65-1.183 1.142-1.35 1.475-.167.333-.25.942-.25 1.825zM12 22a9.742 9.742 0 0 1-3.9-.787 10.083 10.083 0 0 1-3.175-2.138c-.9-.9-1.612-1.959-2.137-3.175A9.75 9.75 0 0 1 2 12c0-1.384.262-2.684.788-3.9a10.152 10.152 0 0 1 2.137-3.175A10.04 10.04 0 0 1 8.1 2.788 9.787 9.787 0 0 1 12 2a9.696 9.696 0 0 1 3.9.788 10.129 10.129 0 0 1 3.175 2.137A10.105 10.105 0 0 1 21.213 8.1 9.688 9.688 0 0 1 22 12a9.816 9.816 0 0 1-.788 3.9 10.002 10.002 0 0 1-2.137 3.175c-.901.898-1.96 1.61-3.175 2.138A9.643 9.643 0 0 1 12 22zm0-2c2.233 0 4.125-.775 5.675-2.325C19.225 16.125 20 14.233 20 12c0-2.233-.775-4.125-2.325-5.675C16.125 4.775 14.233 4 12 4c-2.233 0-4.125.775-5.675 2.325C4.775 7.875 4 9.767 4 12c0 2.233.775 4.125 2.325 5.675C7.875 19.225 9.767 20 12 20z"
    />
  </symbol>
  <symbol id="keyboard-arrow-right" viewBox="0 0 24 24">
    <path fill="#262626" d="M12.6 12L8 7.4 9.4 6l6 6-6 6L8 16.6l4.6-4.6z" />
  </symbol>
  <symbol id="keyboard-arrow-down" viewBox="0 0 24 24">
    <path fill="#262626" d="M12 15.4l-6-6L7.4 8l4.6 4.6L16.6 8 18 9.4l-6 6z" />
  </symbol>
  <symbol id="clock" viewBox="0 0 24 24">
    <path
      d="M14.55 16.55L11 13V8h2v4.175l2.95 2.95-1.4 1.425zM11 6V4h2v2h-2zm7 7v-2h2v2h-2zm-7 7v-2h2v2h-2zm-7-7v-2h2v2H4zm8 9a9.733 9.733 0 0 1-3.9-.788 10.114 10.114 0 0 1-3.175-2.137c-.9-.9-1.612-1.958-2.137-3.175A9.76 9.76 0 0 1 2 12c0-1.383.262-2.683.788-3.9a10.121 10.121 0 0 1 2.137-3.175A10.07 10.07 0 0 1 8.1 2.788 9.742 9.742 0 0 1 12 2c1.382 0 2.682.263 3.9.788a10.084 10.084 0 0 1 3.175 2.137c.899.9 1.611 1.958 2.138 3.175A9.679 9.679 0 0 1 22 12a9.806 9.806 0 0 1-.788 3.9 10.032 10.032 0 0 1-2.137 3.175 10.16 10.16 0 0 1-3.175 2.138A9.689 9.689 0 0 1 12 22zm0-2c2.233 0 4.125-.775 5.675-2.325C19.225 16.125 20 14.233 20 12c0-2.233-.775-4.125-2.325-5.675C16.125 4.775 14.233 4 12 4c-2.233 0-4.125.775-5.675 2.325C4.775 7.875 4 9.767 4 12c0 2.233.775 4.125 2.325 5.675C7.875 19.225 9.767 20 12 20z"
    />
  </symbol>
  <symbol id="keyboard-arrow-left" viewBox="0 0 24 24">
    <path fill="#262626" d="M14 18l-6-6 6-6 1.4 1.4-4.6 4.6 4.6 4.6L14 18z" />
  </symbol>
  <symbol id="info" viewBox="0 0 24 24">
    <path
      d="M11 17h2v-6h-2v6zm1.713-8.287A.97.97 0 0 0 13 8a.965.965 0 0 0-.288-.712A.972.972 0 0 0 12 7a.962.962 0 0 0-.712.288A.97.97 0 0 0 11 8c0 .282.096.52.288.713.192.193.43.289.712.287a.986.986 0 0 0 .713-.288M12 22a9.733 9.733 0 0 1-3.9-.788 10.114 10.114 0 0 1-3.175-2.137c-.9-.9-1.612-1.958-2.137-3.175A9.76 9.76 0 0 1 2 12c0-1.383.262-2.683.788-3.9a10.121 10.121 0 0 1 2.137-3.175A10.07 10.07 0 0 1 8.1 2.788 9.742 9.742 0 0 1 12 2c1.382 0 2.682.263 3.9.788a10.084 10.084 0 0 1 3.175 2.137c.899.9 1.611 1.958 2.138 3.175A9.679 9.679 0 0 1 22 12a9.806 9.806 0 0 1-.788 3.9 10.032 10.032 0 0 1-2.137 3.175 10.16 10.16 0 0 1-3.175 2.138A9.689 9.689 0 0 1 12 22zm0-2c2.233 0 4.125-.775 5.675-2.325C19.225 16.125 20 14.233 20 12c0-2.233-.775-4.125-2.325-5.675C16.125 4.775 14.233 4 12 4c-2.233 0-4.125.775-5.675 2.325C4.775 7.875 4 9.767 4 12c0 2.233.775 4.125 2.325 5.675C7.875 19.225 9.767 20 12 20z"
    />
  </symbol>
  <symbol id="keyboard-arrow-up" viewBox="0 0 24 24">
    <path fill="#262626" d="M12 10.8l-4.6 4.6L6 14l6-6 6 6-1.4 1.4-4.6-4.6z" />
  </symbol>
  <symbol id="link" viewBox="0 0 24 24">
    <path
      d="M7.95 21c-1.367 0-2.533-.483-3.5-1.45-.967-.967-1.45-2.133-1.45-3.5a4.89 4.89 0 0 1 1.45-3.5L7.8 9.225l1.4 1.4-3.35 3.35a2.807 2.807 0 0 0-.637.963A3.04 3.04 0 0 0 5 16.05c0 .817.288 1.513.863 2.088A2.84 2.84 0 0 0 7.95 19a3.09 3.09 0 0 0 1.125-.213c.367-.142.692-.354.975-.637l3.325-3.35 1.425 1.425-3.35 3.325A4.89 4.89 0 0 1 7.95 21zm1.975-5.5L8.5 14.075 14.075 8.5 15.5 9.925 9.925 15.5zm6.275-.7l-1.4-1.425 3.35-3.325c.283-.283.492-.6.625-.95s.2-.717.2-1.1c0-.833-.283-1.542-.85-2.125S16.858 5 16.025 5a2.99 2.99 0 0 0-1.112.213 2.84 2.84 0 0 0-.963.637L10.625 9.2 9.2 7.8l3.35-3.35A4.89 4.89 0 0 1 16.05 3c1.367 0 2.529.483 3.487 1.45.958.967 1.437 2.142 1.438 3.525 0 .65-.121 1.275-.363 1.875a4.77 4.77 0 0 1-1.062 1.6L16.2 14.8z"
    />
  </symbol>
  <symbol id="menu" viewBox="0 0 24 24">
    <path fill="#262626" d="M3 18v-2h18v2H3zm0-5v-2h18v2H3zm0-5V6h18v2H3z" />
  </symbol>
  <symbol id="light-mode" viewBox="0 0 24 24">
    <path
      d="M14.125 14.125A2.893 2.893 0 0 0 15 12c0-.833-.292-1.542-.875-2.125A2.893 2.893 0 0 0 12 9c-.833 0-1.542.292-2.125.875A2.893 2.893 0 0 0 9 12c0 .833.292 1.542.875 2.125A2.893 2.893 0 0 0 12 15c.833 0 1.542-.292 2.125-.875zm-5.663 1.413C7.487 14.563 7 13.383 7 12s.488-2.562 1.463-3.537C9.438 7.488 10.617 7.001 12 7c1.383 0 2.562.487 3.538 1.463.976.976 1.463 2.155 1.462 3.537-.001 1.382-.489 2.561-1.463 3.538-.974.977-2.153 1.464-3.537 1.462-1.384-.002-2.563-.49-3.537-1.463M5 13H1v-2h4v2zm18 0h-4v-2h4v2zM11 5V1h2v4h-2zm0 18v-4h2v4h-2zM6.4 7.75L3.875 5.325 5.3 3.85l2.4 2.5-1.3 1.4zm12.3 12.4l-2.425-2.525L17.6 16.25l2.525 2.425L18.7 20.15zM16.25 6.4l2.425-2.525L20.15 5.3l-2.5 2.4-1.4-1.3zM3.85 18.7l2.525-2.425L7.75 17.6l-2.425 2.525L3.85 18.7z"
    />
  </symbol>
  <symbol id="mail" viewBox="0 0 24 24">
    <path
      d="M4 20c-.55 0-1.02-.196-1.412-.587A1.93 1.93 0 0 1 2 18V6c0-.55.196-1.02.588-1.412A1.93 1.93 0 0 1 4 4h16c.55 0 1.021.196 1.413.588.392.392.588.863.587 1.412v12a1.93 1.93 0 0 1-.587 1.413A1.92 1.92 0 0 1 20 20H4zm8-7L4 8v10h16V8l-8 5zm0-2l8-5H4l8 5zM4 8V6v12V8z"
    />
  </symbol>
  <symbol id="lock" viewBox="0 0 24 24">
    <path
      d="M6 22c-.55 0-1.02-.196-1.412-.587A1.93 1.93 0 0 1 4 20V10c0-.55.196-1.02.588-1.412A1.93 1.93 0 0 1 6 8h1V6c0-1.383.488-2.562 1.463-3.537C9.438 1.488 10.617 1.001 12 1c1.383 0 2.562.487 3.538 1.463C16.514 3.439 17.001 4.618 17 6v2h1c.55 0 1.021.196 1.413.588.392.392.588.863.587 1.412v10a1.93 1.93 0 0 1-.587 1.413A1.92 1.92 0 0 1 18 22H6zm0-2h12V10H6v10zm7.413-3.588c.391-.39.587-.861.587-1.412 0-.55-.196-1.021-.587-1.412A1.935 1.935 0 0 0 12 13a1.911 1.911 0 0 0-1.412.588A1.94 1.94 0 0 0 10 15a1.923 1.923 0 0 0 .588 1.413c.393.394.864.59 1.412.587a1.957 1.957 0 0 0 1.413-.588zM9 8h6V6c0-.833-.292-1.542-.875-2.125A2.893 2.893 0 0 0 12 3c-.833 0-1.542.292-2.125.875A2.893 2.893 0 0 0 9 6v2z"
    />
  </symbol>
  <symbol id="more-horizontal" viewBox="0 0 24 24">
    <path
      d="M6 14c-.55 0-1.02-.196-1.412-.587A1.93 1.93 0 0 1 4 12c0-.55.195-1.021.588-1.412A1.94 1.94 0 0 1 6 10a1.92 1.92 0 0 1 1.413.588c.393.393.589.864.587 1.412a1.95 1.95 0 0 1-.587 1.413A1.9 1.9 0 0 1 6 14zm6 0c-.55 0-1.02-.196-1.412-.587A1.93 1.93 0 0 1 10 12c0-.55.195-1.021.588-1.412A1.94 1.94 0 0 1 12 10a1.92 1.92 0 0 1 1.413.588c.393.393.589.864.587 1.412a1.95 1.95 0 0 1-.587 1.413A1.9 1.9 0 0 1 12 14zm6 0c-.55 0-1.02-.196-1.412-.587A1.93 1.93 0 0 1 16 12c0-.55.195-1.021.588-1.412A1.94 1.94 0 0 1 18 10a1.92 1.92 0 0 1 1.413.588c.393.393.589.864.587 1.412a1.95 1.95 0 0 1-.587 1.413A1.9 1.9 0 0 1 18 14z"
    />
  </symbol>
  <symbol id="restart" viewBox="0 0 24 24">
    <path
      fill="#262626"
      d="M11 20.95c-2.017-.25-3.687-1.129-5.012-2.637C4.663 16.805 4.001 15.034 4 13c0-1.1.217-2.154.65-3.162A7.81 7.81 0 0 1 6.5 7.2l1.425 1.425A5.63 5.63 0 0 0 6.488 10.6 5.988 5.988 0 0 0 6 13c0 1.467.467 2.763 1.4 3.888.933 1.125 2.133 1.813 3.6 2.062v2zm2 0v-2c1.45-.267 2.646-.958 3.588-2.075C17.53 15.758 18.001 14.467 18 13c0-1.667-.583-3.083-1.75-4.25C15.083 7.583 13.667 7 12 7h-.075l1.1 1.1-1.4 1.4-3.5-3.5 3.5-3.5 1.4 1.4-1.1 1.1H12c2.233 0 4.125.775 5.675 2.325C19.225 8.875 20 10.767 20 13c0 2.017-.662 3.78-1.987 5.288-1.325 1.509-2.996 2.396-5.013 2.662z"
    />
  </symbol>
  <symbol id="play" viewBox="0 0 24 24">
    <path fill="#262626" d="M8 19V5l11 7-11 7zm2-3.65L15.25 12 10 8.65v6.7z" />
  </symbol>
  <symbol id="play-disabled" viewBox="0 0 24 24">
    <path
      fill="#262626"
      d="M16.45 13.6l-1.4-1.45-.95-.9L8 5.15V5l11 7-2.55 1.6zm3.3 9L13 15.8 8 19v-8.2L1.4 4.2l1.4-1.4 18.4 18.4-1.45 1.4zM10 15.35l1.55-1L10 12.8v2.55z"
    />
  </symbol>
  <symbol id="remove" viewBox="0 0 24 24">
    <path fill="#262626" d="M5 13v-2h14v2H5z" />
  </symbol>
  <symbol id="search" viewBox="0 0 24 24">
    <path
      fill="#262626"
      d="M19.6 21l-6.3-6.3A6.096 6.096 0 0 1 9.5 16c-1.817 0-3.354-.63-4.612-1.888C3.63 12.853 3.001 11.316 3 9.5c0-1.816.629-3.353 1.888-4.612C6.148 3.629 7.685 3 9.5 3s3.353.63 4.613 1.888C15.373 6.147 16.002 7.684 16 9.5a6.096 6.096 0 0 1-1.3 3.8l6.3 6.3-1.4 1.4zM9.5 14c1.25 0 2.313-.437 3.188-1.312S14.001 10.751 14 9.5c0-1.25-.438-2.313-1.312-3.187C11.814 5.439 10.751 5.001 9.5 5c-1.251-.001-2.314.436-3.187 1.313C5.44 7.19 5.002 8.252 5 9.5c-.002 1.248.436 2.31 1.313 3.188.877.877 1.94 1.315 3.187 1.312z"
    />
  </symbol>
  <symbol id="star" viewBox="0 0 24 24">
    <path
      fill="#262626"
      d="M8.85 16.825l3.15-1.9 3.15 1.925-.825-3.6 2.775-2.4-3.65-.325-1.45-3.4-1.45 3.375-3.65.325 2.775 2.425-.825 3.575zM5.825 21l1.625-7.025L2 9.25l7.2-.625L12 2l2.8 6.625 7.2.625-5.45 4.725L18.175 21 12 17.275 5.825 21z"
    />
  </symbol>
  <symbol id="swap" viewBox="0 0 24 24">
    <path
      fill="#262626"
      d="M7 20l-5-5 5-5 1.4 1.425L5.825 14H13v2H5.825L8.4 18.575 7 20zm10-6l-1.4-1.425L18.175 10H11V8h7.175L15.6 5.425 17 4l5 5-5 5z"
    />
  </symbol>
  <symbol id="more-vertical" viewBox="0 0 24 24">
    <path
      d="M12 20c-.55 0-1.02-.196-1.412-.587A1.93 1.93 0 0 1 10 18c0-.55.195-1.021.588-1.412A1.94 1.94 0 0 1 12 16a1.92 1.92 0 0 1 1.413.588c.393.393.589.864.587 1.412a1.95 1.95 0 0 1-.587 1.413A1.9 1.9 0 0 1 12 20zm0-6c-.55 0-1.02-.196-1.412-.587A1.93 1.93 0 0 1 10 12c0-.55.195-1.021.588-1.412A1.94 1.94 0 0 1 12 10a1.92 1.92 0 0 1 1.413.588c.393.393.589.864.587 1.412a1.95 1.95 0 0 1-.587 1.413A1.9 1.9 0 0 1 12 14zm0-6c-.55 0-1.02-.196-1.412-.587A1.93 1.93 0 0 1 10 6c0-.55.195-1.021.588-1.412A1.94 1.94 0 0 1 12 4a1.92 1.92 0 0 1 1.413.588c.393.393.589.864.587 1.412a1.95 1.95 0 0 1-.587 1.413A1.9 1.9 0 0 1 12 8z"
    />
  </symbol>
  <symbol id="text" viewBox="0 0 24 24">
    <path fill="#262626" d="M10.5 20V7H5V4h14v3h-5.5v13h-3z" />
  </symbol>
  <symbol id="person" viewBox="0 0 24 24">
    <path
      d="M9.175 10.825C8.392 10.042 8 9.1 8 8s.392-2.042 1.175-2.825C9.958 4.392 10.9 4 12 4s2.042.392 2.825 1.175C15.608 5.958 16 6.9 16 8s-.392 2.042-1.175 2.825C14.042 11.608 13.1 12 12 12s-2.042-.392-2.825-1.175zM4 20v-2.8c0-.567.146-1.087.438-1.562A2.93 2.93 0 0 1 5.6 14.55a14.824 14.824 0 0 1 3.15-1.162 13.813 13.813 0 0 1 6.5 0c1.067.26 2.117.647 3.15 1.162.483.25.871.613 1.163 1.088.292.475.438.996.437 1.562V20H4zm2-2h12v-.8a.966.966 0 0 0-.5-.85c-.9-.45-1.808-.787-2.725-1.012A11.652 11.652 0 0 0 12 15c-.933 0-1.858.112-2.775.338A13.14 13.14 0 0 0 6.5 16.35a.977.977 0 0 0-.363.35.93.93 0 0 0-.137.5v.8zm7.413-8.587C13.804 9.021 14 8.55 14 8s-.196-1.02-.587-1.412A1.93 1.93 0 0 0 12 6c-.55 0-1.021.195-1.412.588A1.94 1.94 0 0 0 10 8a1.92 1.92 0 0 0 .588 1.413c.393.393.864.589 1.412.587a1.95 1.95 0 0 0 1.413-.587z"
    />
  </symbol>
  <symbol id="list" viewBox="0 0 24 24">
    <path
      d="M7 9V7h14v2H7zm0 4v-2h14v2H7zm0 4v-2h14v2H7zM4 9a.965.965 0 0 1-.712-.288A.972.972 0 0 1 3 8c0-.283.095-.52.288-.712A.97.97 0 0 1 4 7c.282 0 .52.096.713.288.193.192.289.43.287.712a.986.986 0 0 1-.288.713A.952.952 0 0 1 4 9zm0 4a.965.965 0 0 1-.712-.288A.972.972 0 0 1 3 12c0-.283.095-.52.288-.712A.97.97 0 0 1 4 11c.282 0 .52.096.713.288.193.192.289.43.287.712a.986.986 0 0 1-.288.713A.952.952 0 0 1 4 13zm0 4a.965.965 0 0 1-.712-.288A.972.972 0 0 1 3 16c0-.283.095-.52.288-.712A.97.97 0 0 1 4 15c.282 0 .52.096.713.288.193.192.289.43.287.712a.986.986 0 0 1-.288.713A.952.952 0 0 1 4 17z"
    />
  </symbol>
  <symbol id="tree" viewBox="0 0 24 24">
    <path
      fill="#262626"
      d="M15 21v-3h-4V8H9v3H2V3h7v3h6V3h7v8h-7V8h-2v8h2v-3h7v8h-7zm2-12h3V5h-3v4zm0 10h3v-4h-3v4zM4 9h3V5H4v4z"
    />
  </symbol>
  <symbol id="visibility-off" viewBox="0 0 24 24">
    <path
      d="M16.1 13.3l-1.45-1.45c.15-.783-.075-1.517-.675-2.2-.6-.683-1.375-.95-2.325-.8L10.2 7.4c.283-.133.571-.233.863-.3.292-.067.604-.1.937-.1 1.25 0 2.313.438 3.188 1.313s1.313 1.938 1.312 3.187c0 .333-.033.646-.1.938-.067.292-.167.58-.3.862zm3.2 3.15l-1.45-1.4a10.98 10.98 0 0 0 1.688-1.587A8.84 8.84 0 0 0 20.8 11.5a9.834 9.834 0 0 0-3.588-4.012C15.653 6.497 13.916 6.001 12 6c-.483 0-.958.033-1.425.1a9.622 9.622 0 0 0-1.375.3L7.65 4.85A11.106 11.106 0 0 1 12 4c2.517 0 4.758.696 6.725 2.087C20.692 7.478 22.117 9.283 23 11.5a11.696 11.696 0 0 1-1.513 2.738A11.002 11.002 0 0 1 19.3 16.45zm.5 6.15l-4.2-4.15A11.818 11.818 0 0 1 12 19c-2.517 0-4.758-.696-6.725-2.087C3.308 15.522 1.883 13.717 1 11.5c.35-.883.792-1.704 1.325-2.463A11.475 11.475 0 0 1 4.15 7L1.4 4.2l1.4-1.4 18.4 18.4-1.4 1.4zM5.55 8.4a10.72 10.72 0 0 0-1.325 1.425A9.016 9.016 0 0 0 3.2 11.5a9.837 9.837 0 0 0 3.588 4.013C8.347 16.505 10.084 17.001 12 17c.333 0 .658-.02.975-.062.317-.041.642-.087.975-.138l-.9-.95c-.183.05-.358.088-.525.113A3.41 3.41 0 0 1 12 16c-1.25 0-2.313-.437-3.188-1.312S7.499 12.751 7.5 11.5c0-.183.013-.358.038-.525a4.8 4.8 0 0 1 .112-.525L5.55 8.4z"
    />
  </symbol>
  <symbol id="visibility" viewBox="0 0 24 24">
    <path
      fill="#262626"
      d="M15.188 14.688c.875-.875 1.312-1.938 1.312-3.188 0-1.25-.437-2.312-1.312-3.187S13.251 7.001 12 7c-1.25 0-2.313.437-3.187 1.313-.874.876-1.312 1.938-1.313 3.187-.001 1.249.436 2.311 1.313 3.188.877.877 1.939 1.314 3.187 1.312 1.248-.002 2.31-.44 3.188-1.312zm-5.1-1.276A2.601 2.601 0 0 1 9.3 11.5c0-.75.263-1.387.788-1.912A2.609 2.609 0 0 1 12 8.8c.75 0 1.387.262 1.913.788s.788 1.163.787 1.912a2.621 2.621 0 0 1-.787 1.913A2.584 2.584 0 0 1 12 14.2a2.612 2.612 0 0 1-1.912-.787m-4.738 3.55c-2-1.359-3.45-3.18-4.35-5.463.9-2.283 2.35-4.104 4.35-5.462C7.35 4.68 9.567 4.001 12 4c2.433 0 4.65.679 6.65 2.038 2 1.36 3.45 3.18 4.35 5.462-.9 2.283-2.35 4.104-4.35 5.463-2 1.359-4.217 2.038-6.65 2.037-2.433 0-4.65-.68-6.65-2.037zm11.838-1.45A9.777 9.777 0 0 0 20.8 11.5a9.768 9.768 0 0 0-3.613-4.012A9.554 9.554 0 0 0 12 6a9.532 9.532 0 0 0-5.187 1.488A9.785 9.785 0 0 0 3.2 11.5a9.775 9.775 0 0 0 3.613 4.013A9.536 9.536 0 0 0 12 17a9.564 9.564 0 0 0 5.188-1.487z"
    />
  </symbol>
  <symbol id="upload" viewBox="0 0 24 24">
    <path
      d="M11 16V7.85l-2.6 2.6L7 9l5-5 5 5-1.4 1.45-2.6-2.6V16h-2zm-5 4c-.55 0-1.02-.196-1.412-.587A1.93 1.93 0 0 1 4 18v-3h2v3h12v-3h2v3a1.93 1.93 0 0 1-.587 1.413A1.92 1.92 0 0 1 18 20H6z"
    />
  </symbol>
  <symbol id="warning" viewBox="0 0 24 24">
    <path
      fill="#262626"
      d="M1 21L12 2l11 19H1zm3.45-2h15.1L12 6 4.45 19zm8.263-1.287A.97.97 0 0 0 13 17a.965.965 0 0 0-.288-.712A.973.973 0 0 0 12 16a.962.962 0 0 0-.712.288A.97.97 0 0 0 11 17c0 .282.096.52.288.713.192.193.43.289.712.287a.986.986 0 0 0 .713-.287zM11 15h2v-5h-2v5z"
    />
  </symbol>
  <symbol id="table" viewBox="0 0 24 24">
    <path
      d="M5 21c-.55 0-1.02-.196-1.412-.587A1.93 1.93 0 0 1 3 19V5c0-.55.196-1.02.588-1.412A1.93 1.93 0 0 1 5 3h14c.55 0 1.021.196 1.413.588.392.392.588.863.587 1.412v14a1.93 1.93 0 0 1-.587 1.413A1.92 1.92 0 0 1 19 21H5zm6-6H5v4h6v-4zm2 0v4h6v-4h-6zm-2-2V9H5v4h6zm2 0h6V9h-6v4zM5 7h14V5H5v2z"
    />
  </symbol>
</svg>
